<svg xmlns="http://www.w3.org/2000/svg" viewBox="0 0 667 497" height="496.8" width="666.7"><path d="M0 437h667H0zM556 458h44-44M347 454h17-17M430 455h36v1h-36v-1M480 446h74-74zM70 461h35-35M117 461h31-31M175 454h81-81zM88 0c-4 0-7 4-7 8v362c0 4 3 7 7 7h229c3 0 6-3 6-7V8c0-4-3-8-6-8H88m229 377H88c-4 0-7-3-7-7V8c0-5 3-8 7-8h229c4 0 7 3 7 8v362c0 4-3 7-7 7M347 0c-4 0-7 4-7 8v362c0 4 3 7 7 7h257c4 0 8-3 8-7V8c0-4-4-8-8-8H347m257 377H347c-4 0-8-3-8-7V8c0-5 4-8 8-8h257c5 0 8 3 8 8v362c0 4-3 7-8 7" fill="#e7e8e5"/><path d="M393 437h202V31H393z" fill="#fafaf9"/><path d="M458 183h72V83h-72z" fill="#fff"/><path d="M596 31h-1v406h1V31" fill="#e7e8e5"/><path d="M585 437h-1V42H405v395h-2V41h182v396" fill="#dadbd8"/><path d="M542 234a3 3 0 000 6h28a3 3 0 000-6zm28 7h-28a4 4 0 010-8h28a4 4 0 010 8" fill="#dadbd8"/><path d="M262 161H75v-16h187v16M77 437h185V161H77z" fill="#fafaf9"/><path d="M262 437h14V145h-14zM164 177H93v163h71V177" fill="#ededeb"/><path d="M144 177h-17l-14 163h17l14-163" fill="#fff"/><path d="M95 351l-2 2v68l2 1h149l2-1v-68l-2-2zm149 73H95c-2 0-3-1-3-3v-68c0-2 1-3 3-3h149c2 0 4 1 4 3v68c0 2-2 3-4 3" fill="#ededeb"/><path d="M235 361a2 2 0 100 3 2 2 0 000-3zm0 5a3 3 0 110-7 3 3 0 010 7" fill="#ededeb"/><path d="M94 177h-1v163h1V177" fill="#e7e8e5"/><path d="M175 340h72V177h-72z" fill="#ededeb"/><path d="M208 177h-7l-14 163h7l14-163M219 177h-7l-14 163h7l14-163" fill="#fff"/><path d="M177 177h-2v163h2V177M262 161H77v2h185v-2" fill="#e7e8e5"/><path d="M107 121h192V28H107z" fill="#fafaf9"/><path d="M228 41a33 33 0 100 66 33 33 0 000-66m0 68a35 35 0 110-69 35 35 0 010 69" fill="#fff"/><path d="M266 50c2-5 2-9 1-14h-4s2 6-1 13c-13 0-16 14-26 11l-12-1-4 1c-14 4-31 12-34 25l3 1s2-10 16-16l-3 5c-8 32 50 26 65 15 19-13 11-36-1-40M174 42h-58v-4h58v4M160 51h-44v-3h44v3M174 70h-58v-3h58v3M144 80h-28v-4h28v4M169 80h-20v-4h20v4M163 89h-47v-4h47v4M174 99h-58v-4h58v4M361 437h-55c-2 0-3-1-3-3l-11-88c0-1 1-3 3-3h77l2 3-11 88c0 2-1 3-2 3" fill="#e7e8e5"/><path d="M295 372l-2-2c-2-5-4-27-2-28l10-2 12 1h2v2h-20c-2 0-3 2-3 3l3 26m76-1l3-25-2-3h-25l-1-3a277 277 0 0130 2c3 3-3 24-4 28l-1 1" fill="#f7f7f6"/><path d="M300 373l-5-1-3-26c0-1 1-3 3-3h20l3 28-18 2m68-1l-13-2h-7l-1-27h25l2 3-3 25-3 1" fill="#efefed"/><path d="M592 482c0 8-116 15-259 15-142 0-258-7-258-15 0-9 116-15 258-15 143 0 259 6 259 15" fill="#f3f2f1"/><path d="M219 62c-10-10-27-11-33-2-6 10-3 21-16 32-8 7-2 30 48 28 23-1 15-25 14-37 0-12 0-26-13-21" fill="#17282f"/><path d="M199 463l-12 1v-13l12-1v13" fill="#cd4b4f"/><path d="M186 461h14l1 1 2 11c1 1 0 2-1 2h-32c-5 0-5-5-3-5 9-3 15-5 18-8l1-1" fill="#17282f"/><path d="M199 456v-2 2" fill="#c3c5c2"/><path d="M199 454" fill="#b1b3b1"/><path d="M187 457v-2l12-1v2l-12 1" fill="#9e3a3e"/><path d="M169 202c-2 15 1 85 5 116 5 41 11 137 11 137l16-1s4-101 1-134c1-43 6-117 6-117l-39-1" fill="#406fbf"/><path d="M205 259" fill="#b6b8b6"/><path d="M204 269l1-10-1 10" fill="#c3c5c2"/><path d="M203 301c-6-16-10-39-8-52 1-8 4-12 6-12s5 6 4 12v1a7815 7815 0 00-2 51" fill="#3563b7"/><path d="M287 423l-8 7-10-11 8-7 10 11" fill="#cd4b4f"/><path d="M277 431l8-11 2-1 9 6v3l-8 10-7 11c-3 4-7 1-6-1 4-9 2-11 2-15v-2" fill="#17282f"/><path d="M282 417l-5-5 5 5" fill="#c3c5c2"/><path d="M274 425l-1-2 2-10 2-1 5 5-8 8" fill="#9e3a3e"/><path d="M188 203s17 90 22 126c2 21 61 96 61 96l10-10s-21-56-47-89c-1-38 3-102-12-123h-34" fill="#406fbf"/><path d="M173 133a323 323 0 01-4 46v4a51 51 0 01-3 9l-5 10-12 20a3 3 0 01-6-3 340 340 0 0014-39v-2a521 521 0 002-45 7 7 0 0114 0" fill="#cd4b4f"/><path d="M168 123c-16 5-14 35-14 35l23 6 4-29c0-9-4-14-13-12" fill="#406fbf"/><path d="M145 217l-9 7 12 5s4-6 2-11l-5-1" fill="#cd4b4f"/><path d="M138 235l5 1 3-2 2-5-12-5v8c-1 1 0 3 2 3" fill="#cd4b4f"/><path d="M163 131c-1 30 6 52 6 71l53 1c0-19 0-32 8-67 2-6-2-13-9-14l-10-1a168 168 0 00-40 2c-4 0-8 4-8 8" fill="#406fbf"/><path d="M212 159h-15c-1 0-2-1-1-2v-7l2-1h15l2 1-1 8-2 1M211 121" fill="#fff"/><path d="M187 142c-9-15 0-21 0-21s-5 4 1 14c11-10 23-14 23-14l-24 21" fill="#7da6dd"/><path d="M209 94c-2 8-4 22 2 27 0 0-12 4-23 14-6-10-1-14-1-14 8-2 8-8 7-14l15-13" fill="#cd4b4f"/><path d="M195 113" fill="#111d23"/><path d="M195 113v-3l-1-3 13-11c0 2 0 7-3 13-2 3-5 4-9 4" fill="#9e3a3e"/><path d="M221 85c-3 12-5 17-13 22-12 7-26 0-26-13 0-12 7-30 20-32 14-2 23 11 19 23" fill="#cd4b4f"/><path d="M189 69c7 2 23 3 26 1-3 5 0 18 5 21 6-5 7-18 1-24-5-6-24-13-32 2" fill="#17282f"/><path d="M223 92c-1 3-3 5-5 6-3 1-5-2-4-5 0-2 2-7 5-7 4 0 5 4 4 6" fill="#cd4b4f"/><path d="M223 200l2 5-1 1-55-1-1-1v-5h1l53 1h1" fill="#17282f"/><path d="M216 206h2l-1-6v-1h-2v7h1M173 205h2l-1-6v-1h-2v7h1M194 206h2v-7h-3l1 6v1" fill="#406fbf"/><path d="M202 84l-1 1-1-2 2-1v2M191 81c0 1-1 2-2 1l-1-2 2-1 1 2" fill="#17282f"/><path d="M190 79l-2-1s1 2 2 1" fill="#17282f"/><path d="M193 83s-2 4-5 6c1 2 4 2 4 2l1-8" fill="#bb2329"/><path d="M194 95v-1c5 1 8-1 8-1s-3 3-8 2M209 79h-1c-1-3-3-3-3-3a1 1 0 110-1s3 0 4 3a1 1 0 010 1M189 74h-1v-1c3-2 6-1 6-1a1 1 0 010 1l-5 1c0 1 0 1 0 0" fill="#17282f"/><path d="M230 132a289 289 0 0116 24c2 3 4 5 5 9l1 3 1 2v3h-1v1l-2 4-4 9a45 45 0 01-11 12 31 31 0 01-4 2h-1l-3-6h1v-1a24 24 0 004-4l5-8 1-4 2-4 1-4v1c0 1 0 1 0 0l-1-1a91 91 0 00-10-15l-10-15 10-8" fill="#cd4b4f"/><path d="M233 200l-10 7-5-10s7-4 11-2l4 5" fill="#cd4b4f"/><path d="M216 208l-3-4c-1-1-1-3 1-4l4-3 5 10-3 2c-1 1-3 0-4-1" fill="#cd4b4f"/><path d="M210 129c-4 14 18 37 18 37l18-18s-8-18-19-24c-8-4-16-1-17 5" fill="#406fbf"/><path d="M202 82l-2-2s0 3 2 2M179 166l-1-1 3-1c4-1 6-5 6-9v-20c0-4-2-6-5-6-2-1-5 0-7 3l-9 17c-2 4-1 9 1 12l2 1-1 1-1-2c-3-3-4-8-2-12l9-17c2-4 5-5 9-4 3 1 5 4 5 7v20c0 4-3 8-7 10l-2 1" fill="#17282f"/><path d="M188 139h-1c0-4-3-6-6-7-2 0-6 0-8 3v1l-1-1c2-3 6-5 10-4s6 4 6 8M183 129h-1v-4l5-5v1c-3 1-4 4-4 4v4M178 165v2l2-1-1-2-1 1M215 142c1 2 2 3 4 3 1 0 2-2 1-4 0-2-2-3-3-3l-2 4" fill="#17282f"/><path d="M220 141h-1c0-7-3-17-8-19l-1-1h1c6 3 9 12 9 20" fill="#17282f"/><path d="M214 142c0 2 2 3 3 3l2-4-3-2c-2 0-2 1-2 3" fill="#fff"/><path d="M214 142l2 4c1 0 2-2 1-4l-2-4c-1 0-2 2-1 4M167 163l1 1c1 1 1 0 2-1l-1-2-2 2M314 54c-9 1-10 1-10-5s-3-17 1-20c3-2 4 1 4 1 0-1 2-2 3-1 1-1 1-5 3-6s4 2 4 2 0-5 4-5c3 1 4 4 4 4s2-3 4-2c3 1 2 5 2 5s3-2 5 0c2 1 1 4 1 4s1-5 5-2c3 2 0 6 0 6s4-1 5 1c3 6-8 13-9 23-17 6-26-5-26-5" fill="#17282f"/><path d="M253 216l-6-1-7 7-2 3 1 6c0 2 1 4 3 4h3c2 0 4-1 4-3l1-5s8-8 3-11" fill="#f89e63"/><path d="M310 110a1980 1980 0 00-22 59l-1 1v2l-1 1-2 4a177 177 0 01-11 22l-16 27-17-11a658 658 0 0028-49v-2l1-2 10-30 9-30 22 8" fill="#406fbf"/><path d="M257 226l-4-2-9-6-4-3a658 658 0 0028-49v-2l1-2 10-30a367 367 0 00-3 51l-3 15v1l-11 17-5 10" fill="#a4c3e9"/><path d="M259 467h-12l5-31 12 3-5 28M344 467h-11v-28h12l-1 28" fill="#f89e63"/><path d="M331 466h16l2 11-2 2h-34c-4 0-5-5-3-5 9-2 16-5 19-8h2" fill="#17282f"/><path d="M261 453l1-3-1 3m-11-3" fill="#c3c5c2"/><path d="M261 453l-11-3v-2l12 2-1 3" fill="#dc834c"/><path d="M345 454v-3 3" fill="#c3c5c2"/><path d="M345 454h-12v-3h12v3" fill="#dc834c"/><path d="M354 109c-9 42-7 84-8 93l-64-4c-6-51 1-83 5-97 2-4 6-7 10-8l29-1c7 0 13 2 19 3 7 2 11 8 9 14" fill="#406fbf"/><path d="M335 64c-2 8-5 22-1 29v3c0 4-6 5-15 5-10 0-14-4-11-7l1-2c9-2 10-9 8-15l18-13" fill="#f89e63"/><path d="M323 111l-3-8c1 2 3 4 3 7l8-6-1 1-7 6M308 109l-3-4v-1l3 4c2-4 5-6 7-7l-7 8" fill="#2251aa"/><path d="M315 101l2-2-2 2" fill="#9c5f3a"/><path d="M318 99h-2l-4 2 1 4 6 1 3-3-3-4h-1" fill="#17282f"/><path d="M318 99s3 4 5 11c10-5 15-16 15-16l-4-4s-11 4-16 9M318 99s-5 2-10 9c-7-5-4-16-4-16l5-1 9 8" fill="#406fbf"/><path d="M318 82v-1 1m-1-5l3-2-3 2" fill="#c3c5c2"/><path d="M318 82v-1l-1-4 3-2 8-6v5c-1 4-6 7-10 8" fill="#dc834c"/><path d="M337 51c-2 11-2 18-8 24-10 9-24 2-26-10-2-11 1-28 13-32 11-4 22 6 21 18" fill="#f89e63"/><path d="M334 61c-3-2-1-15 0-18-6 0-28 0-27-6 1-5 9-11 21-6 11 3 14 8 14 13 0 9-8 17-8 17" fill="#17282f"/><path d="M341 61c-1 3-4 5-6 6-3 1-5-3-4-6s3-7 7-7c3 1 5 4 3 7" fill="#f89e63"/><path d="M246 447l20 4s19-75 25-112c1-11 5-27 9-44l15-62 9-33-42-2s-19 98-23 134l-13 115" fill="#17282f"/><path d="M300 295c-2-16 0-44 5-61l3 28-8 33" fill="#111d23"/><path d="M302 199l12 135 14 117h20s1-83-2-120V202l-44-3" fill="#17282f"/><path d="M326 451h25v-7l-26-2 1 9M243 447l24 5 2-8-25-6-1 9" fill="#406fbf"/><path d="M320 53l-2 1-1-1 2-2 1 2M309 52l-2 2-1-2 2-2 1 2" fill="#17282f"/><path d="M311 53l-5 8 5 1v-9" fill="#f57739"/><path d="M314 65l6-3s-3 2-7 2v1h1M322 49h1c-2-3-5-3-5-3a1 1 0 000 1l4 2M303 48h1l3-3a1 1 0 000-1s-3 0-4 3v1" fill="#17282f"/><path d="M330 467h-5v-1-1l5 2zm-3 1l4-1c-1 0-5-3-6-2v1 1l2 1" fill="#406fbf"/><path d="M328 462l1 1 1 3c-1 0-3-2-2-3zm2 5h1s0-4-2-5h-1l-1 1 3 4" fill="#406fbf"/><path d="M245 462l14 4 1 1-1 11c0 1-2 2-3 1l-13-4c-4-1-15-5-19-8s-2-7 0-6c9 3 15 3 19 1h2" fill="#17282f"/><path d="M243 463l-4-2v-1l4 3zm-3 0h4c0-1-3-4-5-4l-1 1v2l2 1" fill="#406fbf"/><path d="M243 458v4l-1-4h1zm1 5v-5l-1-1-1 1c-1 1 0 4 1 5h1M335 92l-1 1c0 7-11 20-13 58-2 24-3 97-2 135 0 2 2 3 4 3 8-3 14-2 19-1 7 1 11 2 14-7-1-19-6-87-5-103l9-71c2-10-19-14-25-15" fill="#406fbf"/><path d="M322 289c-2 0-3-2-3-3a1181 1181 0 012-135c2-38 13-51 13-58a1 1 0 011-1c5 0 20 4 24 11l-21 8 10 25c0 9 1 22 5 30l1-11a753 753 0 00-3 46l-7 30 4 2-2 5-1 3 2 6a4 4 0 005 2h2l2 32c-2 6-4 8-8 8l-3-1h-3l-9-1a38 38 0 00-11 2m38-183" fill="#b8d2ef"/><path d="M353 166c-4-8-5-21-5-30a466 466 0 016 19l-1 11" fill="#9abee8"/><path d="M356 228l-5 1-5 9-1 3 2 6c1 2 3 3 5 2h2c2-1 3-2 3-4v-5s5-11-1-12" fill="#f89e63"/><path d="M359 103l6 16 4 16a488 488 0 018 29v5a18 18 0 010 3v3l-1 5a217 217 0 01-5 24l-4 17-4 16-19-6a725 725 0 0013-61v-1-2a74 74 0 00-3-11 287 287 0 00-16-45l21-8" fill="#406fbf"/><path d="M363 237l-4-1-11-3-4-2a725 725 0 0013-61v-1-2a74 74 0 00-3-12 295 295 0 00-16-44l21-8 6 16 4 16a488 488 0 018 29v5a11 11 0 010 2v4l-1 5a217 217 0 01-5 24l-4 17-4 16" fill="#b8d2ef"/><path d="M309 91c1 0 2 1 1 2-3 4-5 9-9 25-4 20-14 118-16 166 0 2-1 3-3 3h-9c-4 0-7 1-8-3-1-7 3-71 11-101-1-26 4-79 12-87 5-3 16-5 21-5" fill="#406fbf"/><path d="M270 287c-3 0-4-1-5-3v-4c0-16 4-70 11-97v-9c0-28 4-71 12-78 5-3 16-5 21-5a2 2 0 012 2h-1l-5 11v1l-4 13c-4 20-14 118-16 166a3 3 0 01-3 3l-5-1-4 1h-3" fill="#b8d2ef"/><path d="M314 104s-11 32-15 59c-1 8 3 22 6 28 6-13 9-20 10-28l3-59h-4M338 142v-1l2-1c5-2 7-6 6-11l-2-22c0-4-4-6-6-6-3 0-6 1-8 5l-7 20c-2 4-1 9 3 12l1 2v1l-2-2c-4-3-5-9-3-14l7-20c2-3 5-6 9-5 4 0 7 3 7 7l3 22c0 5-3 10-7 12l-2 1h-1" fill="#17282f"/><path d="M345 112c-1-5-5-6-8-7-3 0-7 1-8 5h-1v-1c1-3 5-5 9-5 5 1 8 4 9 7l-1 1M338 101l-1-1c1-2 0-7-2-8a1 1 0 110-1c4 2 3 9 3 10M328 141l-1 1-1-2 1-1 1 2M297 119c-1 2-2 3-4 3-1-1-2-3-1-5l4-3c2 1 2 3 1 5" fill="#17282f"/><path d="M293 118l-1-1c2-9 9-23 16-27h1l-1 1c-6 4-13 18-15 26v1" fill="#17282f"/><path d="M299 119c-1 2-2 3-4 3-1-1-2-2-1-4l3-3c2 1 2 2 2 4" fill="#fff"/><path d="M299 120l-3 3c-2 0-2-3-1-5s2-4 3-3c2 0 2 2 1 5M340 142l-2 2-1-2 2-2 1 2M415 84c5 12-7 18-15 36s11 40 40 40c29 1 29-27 25-47-4-19 5-23 3-38-3-19-31-34-43-16-10-1-14 15-10 25" fill="#17282f"/><path d="M500 248v-1-3l-5-9-6-1c-4 4 0 13 0 13v1c0 2 2 4 4 5h1c3 1 6-1 6-5" fill="#f9a8b3"/><path d="M476 126l2 14 3 15 2 14 2 15 1 1v3l1 2 2 7a631 631 0 0014 41l-19 7-10-28-4-14-2-8-1-1v-2l-1-2v-2l-3-15-3-15-3-14-3-15 22-3" fill="#406fbf"/><path d="M484 245l-6-17a329 329 0 01-4-40l2-62 2 14 3 15 2 14 2 15 1 1v3l1 2 2 7a631 631 0 0014 41l-5 2-10 4-4 1" fill="#a4c3e9"/><path d="M473 124c1 8 0 25-7 69h-49c1-19 1-31-7-67-1-4 1-7 5-8a135 135 0 0137-1l16 2c3 0 5 3 5 5" fill="#17282f"/><path d="M431 91c2 8 3 21-2 26 0 0 6 7 16 7s7-7 7-7c-8-2-8-8-7-14l-14-12" fill="#f9a8b3"/><path d="M445 103l-2-2 2 2" fill="#111d23"/><path d="M444 107c-3 0-7-3-8-6l1-5 6 5 2 2-1 4" fill="#d8898c"/><path d="M423 77c2 12 2 17 9 23 10 8 24 3 26-9 1-11-2-29-14-32-12-4-23 6-21 18" fill="#f9a8b3"/><path d="M425 86c7-7 9-16 8-20 7 2 12-1 12-2 4 4 13 8 12 3s-8-14-21-11c-13 4-18 17-17 22 0 6 6 8 6 8" fill="#17282f"/><path d="M440 79l1 1 1-2-1-1-1 2M451 77l1 2 1-2-1-1-1 1" fill="#17282f"/><path d="M452 76l2-1s-1 2-2 1" fill="#17282f"/><path d="M448 80l4 5c-1 2-3 1-3 1l-1-6" fill="#f46878"/><path d="M444 91h1v-1c-4 1-7-2-7-2s2 3 6 3" fill="#17282f"/><path d="M420 87l5 5c3 1 5-2 4-5 0-2-2-6-5-6s-5 3-4 6" fill="#f9a8b3"/><path d="M436 73h1c2-2 5-2 5-2a1 1 0 100-1s-4 0-6 3M455 72a1 1 0 000-1c-2-2-5-1-5-1a1 1 0 001 1l4 1" fill="#17282f"/><path d="M497 469h12l-3-28h-13l4 28" fill="#f9a8b3"/><path d="M495 456v-3 3" fill="#c3c5c2"/><path d="M495 456v-3l12-2 1 4-13 1" fill="#d8898c"/><path d="M466 193l22 130 21 128-16 2-30-126c-10-41-33-96-33-134h36" fill="#406fbf"/><path d="M421 467h12l1-28h-12l-1 28" fill="#f9a8b3"/><path d="M434 465h-14l-1 1-1 11 2 2h29c5 0 6-5 3-5-9-2-13-5-16-8l-2-1" fill="#17282f"/><path d="M422 454v-4 4" fill="#c3c5c2"/><path d="M434 454h-12v-4h12v4" fill="#d8898c"/><path d="M452 193s-4 95-8 132l-7 125h-17s-3-86-2-124c2-42-8-95-2-133h36" fill="#406fbf"/><path d="M419 451h19v-11l-19 1v10" fill="#17282f"/><path d="M441 465v1l-5 1 5-2zm-2 3l2-1 1-2c-2-1-7 1-7 2l4 1" fill="#406fbf"/><path d="M438 462v1l-3 3 2-3 1-1zm-3 5c1-1 4-3 4-5h-3l-2 5h1" fill="#406fbf"/><path d="M509 465h-14v12l3 2h29c5 0 5-5 2-5-10-2-14-5-18-8l-2-1" fill="#17282f"/><path d="M516 465h1l-1 1-5 1 5-2zm-2 3l3-1v-2c-2-1-7 1-7 2l4 1" fill="#406fbf"/><path d="M513 462l1 1-4 3 2-3 1-1zm-3 5c1-1 4-3 4-5h-3l-1 5" fill="#406fbf"/><path d="M492 454l19-3-2-10-19 4 2 9M441 77l2-1s-1 2-2 1M416 190l-1 5h52l1-5h-51-1" fill="#17282f"/><path d="M423 196h-1l-1-1 1-5v-1h2v6l-1 1M463 196h-2v-1l1-5v-1h2v1l-1 5v1M443 196h-1l-1-1 1-5v-1h2v6l-1 1" fill="#406fbf"/><path d="M427 116c-8 1-20-1-19 11l-2 58c1 15-3 111 3 138 2 5 42 4 47 4v-4s29-4 36-3c-1-17-17-101-17-124-1-24 2-64 1-71 0-6-13-9-20-9 1 6-2 17-9 29-15-15-19-22-20-29" fill="#406fbf"/><path d="M443 327c-14 0-33-1-34-4a408 408 0 01-3-99l5 6 8-8-9 9c0 6-3 16 6 20h2c8 0 8-24 6-34l1-1a139 139 0 01-18-23 467 467 0 00-1-14v-1c4-7 6-16 6-24a121 121 0 0113-17l1-1h1v-1l1-1-19-13h1v-1 1h-1c3-5 12-4 18-5 1 7 5 14 20 29 6-10 9-19 9-26v-3c8 0 20 3 20 9v1l-2 62 1 8c0 23 16 107 17 124h-4-1a282 282 0 00-29 2l-5-110c-2-34-6-67-6-67 2 28 9 128 9 178v4h-13m28-111c0 10 1 36 4 36v-1c4-4 2-14 2-20l-6-15" fill="#b8d2ef"/><path d="M406 178l1-14a478 478 0 00-1 14" fill="#caddf3"/><path d="M406 178l1-14a90 90 0 015-10c0 8-2 17-6 24" fill="#9abee8"/><path d="M428 134l-1 1v1h-1l-1 1a101 101 0 00-6 8l-7 10c-5 8-8 15-10 23l-1 5 1 2 6 11a149 149 0 0017 20l-14 14-5-6-5-5a215 215 0 01-17-26 37 37 0 01-3-9v-1l1-9 5-15a118 118 0 0114-27l5-6 2-3 1-1 1-1v-1l-1 1 19 13" fill="#406fbf"/><path d="M411 230l-5-6-1-2-2-1-2-2a215 215 0 01-17-26 37 37 0 01-3-9v-1l1-9 5-15a118 118 0 0114-27l5-6 2-3 1-1 1-1h-1l19 13-1 1v1h-1l-1 1a101 101 0 00-13 17 146 146 0 00-5 10 70 70 0 00-5 14 37 37 0 00-1 5l1 2 6 11a149 149 0 0017 20l-1 1v-1l-5 6-8 8m-1-109v-1 1" fill="#b8d2ef"/><path d="M456 323l2-1-2 1" fill="#b4ceee"/><path d="M456 323c0-50-7-150-9-178 0 0 4 33 6 67l5 110-2 1M418 251h-2c-9-4-6-14-6-20l9-9 5-5c2 10 2 34-6 34" fill="#8db2e2"/><path d="M419 222l5-6v1l-5 5M475 252c-3 0-4-26-4-36l6 15c0 6 2 16-2 20v1" fill="#8db2e2"/><path d="M455 155h16l1-1-1-8-1-1h-16l-1 1 1 8 1 1" fill="#fff"/><path d="M455 155h16l1-1-1-8-1-1h-16l-1 1 1 8 1 1-1-1-1-8 1-1h16l1 1 1 8h-1l-16 1" fill="#406fbf"/></svg>