<svg xmlns="http://www.w3.org/2000/svg" viewBox="0 0 651 531" height="531" width="650.5"><path d="M650 531H0V0h650v531" fill="#fff"/><path d="M587 422l-419 3c-2-5-109-197-75-297v-1l4-2c53-44 100-49 138-40l4 1c56 16 95 64 116 72 90 34 124-44 194-19 79 30 74 210 38 283" fill="#ebf3fa"/><path d="M235 85c-38-9-85-4-138 40a259 259 0 00-4 3v95h142V85" fill="#f5f9fd"/><path d="M222 136v-27h-23v18h-2v-22h-21v40h-24v24h-8v6h-10v-10h-17v-28h-3v-3 3h-14v-3 3h-3v14h-4v71h-6v6h148v-92h-13" fill="#dfebfa"/><path d="M190 111h-14v-6h14v6M190 119h-14v-5h14v5M190 128h-14v-6h14v6M190 136h-14v-5h14v5M190 145h-14v-6h14v6M190 154h-14v-5h14v5M190 163h-14v-6h14v6M190 171h-14v-5h14v5M190 180h-14v-6h14v6M190 188h-14v-5h14v5M213 114h-14v-5h14v5M213 123h-14v-6h14v6M213 131h-14v-5h14v5M213 140h-14v-6h14v6M213 148h-14v-5h14v5M213 157h-14v-5h14v5M213 166h-14v-6h14v6M213 174h-14v-5h14v5M213 183h-14v-6h14v6M213 191h-14v-5h14v5M213 201h-14v-5h14v5M213 209h-14v-5h14v5M213 218h-14v-5h14v5M213 227h-14v-6h14v6" fill="#eef6ff"/><path d="M158 146h-1v-12h1v12M169 147h-1v-22h1v22M179 105h-1v-3h1v3M194 105v-3 3" fill="#dfebfa"/><path d="M240 222v6H87v-6c161 10 127 2 153 0M97 125v97h-4v-94-1l4-2M235 85l4 1v136h-4V85" fill="#cbdcf7"/><path d="M606 423H49l-1-1 1-1h557l1 1-1 1" fill="#2e3552"/><path d="M522 341v3h61v-3-1h-61v1" fill="#8fadef"/><path d="M522 341v3h48l1-1v-2l-1-1h-48v1" fill="#bbd0ff"/><path d="M537 421h43v-77h-43v77" fill="#aec3ff"/><path d="M525 421h43v-77h-43v77" fill="#d2e0ff"/><path d="M565 347h-37v69h37zm-38 0h39v70h-39v-70M528 370h37-37" fill="#aec3ff"/><path d="M528 394h37v-1h-37v1M543 351h7v-1h-8l1 1M543 374h7v-1h-8l1 1M543 398h7v-1h-8l1 1" fill="#aec3ff"/><path d="M552 195h-22l-2-2v-27l2-2h22l2 2v27l-2 2" fill="#c0d8fb"/><path d="M551 194h-20c-1 0-2-1-2-3v-24l2-2h20l2 2v24c0 2-1 3-2 3" fill="#dfebfd"/><path d="M540 168l1-1v1h-1M545 169v-1l1 1-1 1v-1M548 172l1 1v1l-1-1v-1M550 178l1 1h-1v-1M549 185v1-1c0-1 0-1 0 0M546 189v1h-1v-1h1M540 191l1-1v2l-1-1M537 169l-1-1v1l1 1v-1M533 172l-1 1 1 1v-1-1M531 178v1h1l-1-1M532 185v1h1v-1h-1M536 189v0M541 179v-1l1 1h-1M541 179v-9 9M541 179l4-4-4 4" fill="#b7d3f3"/><path d="M319 336H206l-50-60c-3-4-2-11 1-14l3-2 100 2 59 74" fill="#d2e0ff"/><path d="M207 337l-10 9-42-71c-3-4-2-9 1-12l4-3 47 77" fill="#aec3ff"/><path d="M157 346h277c4 0 7-4 7-8s-3-7-7-7H157c-4 0-7 3-7 7s3 8 7 8M202 415h-5v-69h5v69M497 415h-5v-69h5v69M429 415h-4v-69h4v69M280 415h-4v-69h4v69" fill="#aec3ff"/><path d="M403 395H197v-5h206v5" fill="#aec3ff"/><path d="M497 395h-99v-5h99v5" fill="#aec3ff"/><path d="M195 415c0-4 2-7 5-7 2 0 5 3 5 7 0 3-3 6-5 6-3 0-5-3-5-6" fill="#2b478b"/><path d="M197 415c0-2 1-4 3-4l2 4-2 3c-2 0-3-2-3-3" fill="#aec3ff"/><path d="M273 415c0-4 2-7 5-7s5 3 5 7c0 3-2 6-5 6s-5-3-5-6" fill="#2b478b"/><path d="M275 415c0-2 1-4 3-4 1 0 3 2 3 4l-3 3c-2 0-3-2-3-3" fill="#aec3ff"/><path d="M422 415c0-4 2-7 5-7s5 3 5 7c0 3-2 6-5 6s-5-3-5-6" fill="#2b478b"/><path d="M424 415c0-2 2-4 3-4 2 0 3 2 3 4 0 1-1 3-3 3l-3-3M160 272v62h7v-54l-7-8" fill="#aec3ff"/><path d="M254 275l24 11-13 3-9-8-2-6" fill="#ffb27d"/><path d="M297 331c1 1 15-24 13-31l-35-9c-11-4-24-17-30-19-13-2-34 13-31 27 5 20 15 32 31 32h52" fill="#f99746"/><path d="M233 284c2-1 4-2 5-5 1-2 0-4-2-5l-3-3-5-5-12 1c1 0 5 9 6 15 0 4 8 4 11 2" fill="#ffb27d"/><path d="M233 271l-3-6-11 5c3 3 7 4 14 1" fill="#e8945b"/><path d="M233 268s-13 8-17-2-9-16 0-22c8-5 11-2 13 1s8 21 4 23" fill="#ffb27d"/><path d="M218 262s-3-1-2-3 2 0 3 0l1-7c-1-3 8-2 11-5 3-2 5-9-1-10-4 0-21-3-24 8-5 14 8 22 10 24h2v-7" fill="#2c3a64"/><path d="M242 272s6-1 18 4c0 0-1 4-5 6-3 3-13-10-13-10" fill="#f99746"/><path d="M398 304s-58 1-85-9-49-10-49-10-18 23-22 43v28s32-9 72 0c30 8 82 0 82 0l2-52" fill="#2b478b"/><path d="M220 312s34 15 41 14c7-2 25-26 25-26l-4-3-23 16-30-21c-5-4-11 19-9 20" fill="#ffb27d"/><path d="M243 302c-2 8-5 15-13 20-1 1-2 2-3 1-3-4-11-14-13-24l1-4c3-2 8-8 13-6 5 1 11 6 15 9v4" fill="#f99746"/><path d="M282 297l2-5 3-3v2l3-3v7c0 2-4 5-4 5l-4-3" fill="#ffb27d"/><path d="M497 346H391l-2-3v-55l2-3h106c2 0 3 2 3 3v55c0 1-1 3-3 3M556 309s-4-6 0-9c0 0 2-2 5-2 0 0-3 6-2 7s3-8 3-8l8 1s-5 5-4 6l7-5s5 1 5 5c0 5-2 6-3 6l-6-2c0 1 3 4 5 4 0 0-4 6-7 4l-5-5h-2l5 4c1 2 2 3-1 3-3-1-8-3-8-6v-3" fill="#aec3ff"/><path d="M575 304s-16 0-19 5l-3 6-1 1 4-4s-1-7 19-8" fill="#aec3ff"/><path d="M553 315s-4 3-4 8h1s1-6 3-8" fill="#aec3ff"/><path d="M542 302s6-4 3-10c0 0-2-4-5-5 0 0 2 9 0 9l-1-10s-6-4-9-4l3 9-6-9s-7-2-8 3 1 8 2 8l7 1c0 1-5 3-7 2 0 0 3 8 6 8 4 0 5-3 7-3 2-1 4 0 3 1s-5 0-7 2-3 3 0 4c4 1 10 0 11-3l1-3" fill="#d4e4f8"/><path d="M522 287s18 7 20 15l2 8v1l-3-6s4-7-19-18" fill="#d4e4f8"/><path d="M544 310s2 5 1 11h-1s1-7-1-11c-1-3 1 0 1 0" fill="#d4e4f8"/><path d="M552 296s-8-6-4-14l6-6s-2 12 0 12c2 1 1-13 1-13s9-5 13-5c0 0-6 12-4 11 2 0 8-11 8-11s9-2 10 4c2 7 0 10-2 10l-10 2c1 1 7 4 10 2 0 0-4 11-9 11-4-1-6-4-9-5-3 0-5 1-3 2 1 1 6 0 9 3 2 2 4 4-1 5-4 1-12 0-13-4l-2-4" fill="#d2e0ff"/><path d="M578 276s-23 9-26 20l-2 10v2s2-7 4-8c0 0-6-9 24-24" fill="#d4e4f8"/><path d="M550 306s-4 7-2 15h1s-1-9 1-14 0-1 0-1" fill="#d4e4f8"/><path d="M552 339c9 0 16-9 16-20h-33c0 11 8 20 17 20" fill="#aec3ff"/><path d="M569 340h-34c0-2 1-3 2-3h29c2 0 3 1 3 3" fill="#aec3ff"/><path d="M569 319h-34 34" fill="#bbd0ff"/><path d="M480 206s-9 2-11 9c-2 6-14 113-14 113s6 6 19 4c12-2 6-126 6-126" fill="#abddda"/><path d="M467 416l-1 5h-23c1-1 1-3 4-3 2-1 7-2 9-5l2-4c1-6 9 1 9 1v6M502 416l-1 5h-23c1-1 1-3 4-3 2-1 7-2 9-5l2-4c1-6 9 1 9 1v6" fill="#233862"/><path d="M457 413c3 1 7 5 10 3a223 223 0 0015-63l3-17c4-18 8-41 8-48 0-11-27-2-27-2s-2 9-2 22a798 798 0 01-7 105" fill="#93312c"/><path d="M476 288l13 125h13s4-65 3-81c0-17 3-44-1-47-3-3-28 3-28 3" fill="#b5453c"/><path d="M506 212s-15-12-26-6l-5 6c-4 5-11 89-11 89s21 9 42-3v-86" fill="#fff"/><path d="M480 206s-16 8-18 13l-9 47c0 4 12 1 14-6l10-34 3-20" fill="#abddda"/><path d="M483 212c3 1 8 0 12-3l-3-11v-3h-9l-2 2a101 101 0 01-1 9s-1 5 3 6" fill="#ffb27d"/><path d="M481 202a11 11 0 0011-4c-2-2-8-1-11 1v3" fill="#e2915a"/><path d="M494 193c-1 8-9 8-13 7h-1l-2-5c-1-6 0-14 1-16 1-3 3-7 11-4 8 2 6 8 4 18" fill="#ffb27d"/><path d="M478 175l6-6c5-3 11 0 11 0 6 4 8 10 4 20-3 10-7 9-7 9l1-4v-1-1c1-1 2-4 1-5s-2 1-3 1l-1 1c-2-2-1-5-3-7s-6 0-9-2c-4-2 0-4 0-5" fill="#233862"/><path d="M477 336a39 39 0 0028-2l6-2-2-50v-7-4a2724 2724 0 00-3-50c-1-5-2-8-5-10a80 80 0 00-7-5l-3 5-4 17a403 403 0 00-4 33v2a476 476 0 00-1 12c-1 3-4 4-4 7l-1 19v35" fill="#abddda"/><path d="M500 237s0 22-14 25-4 4-4 4l26-3c1-1-8-26-8-26M488 272h1a60 60 0 0020 10v-7l3-1v-1a198 198 0 00-12-6l-11 4-1 1" fill="#91cecf"/><path d="M485 271l4 1a75 75 0 0020 3l3-1 6-3c9-12-5-54-8-58-4-5-10-6-14-7h-2a813 813 0 0010 48c-1 4-8 5-13 6a64 64 0 01-4 1v1l-1 3v4l-1 2" fill="#abddda"/><path d="M459 291l32-1-6-49-33 1 7 49" fill="#233862"/><path d="M487 261s-6-1-6 1c-1 4 5 7 7 7s1-9-1-8M454 252s6-2 7 0c1 4-4 9-6 9s-2-9-1-9" fill="#ffb27d"/><path d="M493 203l4 3-10 22s3-22 6-25M481 204l-3 3-1 19 3-20 1-2" fill="#91cecf"/><path d="M474 241l-2-1-10 1-1 1 13-1" fill="#c65447"/><path d="M308 215l1 5h1v-5h-2M294 316l-11-2-12-7v-1s22 17 32 5c8-9 9-33 9-52l-3-39h1s2 18 2 39c1 28-2 45-8 53-3 3-6 4-10 4" fill="#fff"/><path d="M269 308v-1l2-2 2 1-1 2-2 1-1-1" fill="#fff"/><path d="M372 182s0-6 8-7c0 0-4 1-5 3 0 0 3-3 5-2s4 5 4 7l-3 7h-2l1 2c4 8 0 16-2 15s-2 3-2 3l-17-17s6-15 13-11" fill="#2c3a64"/><path d="M327 281c1 1 5-4 5-4v-1l-1-3h-5c-1 1-1 6 1 8" fill="#ffb27d"/><path d="M331 273l1 4 7-1 10-2 3-1a59 59 0 0017-31l-1-6-2-5-2-3-2 1h-1v1l-1 3-1 1-1 2-9 26-6 4-6 4-6 3" fill="#ffb27d"/><path d="M343 266l2 5 4 4 4-2a53 53 0 0012-19v-1c2-2 3-5 3-8l-6-16-1 1-1 3-1 1-1 2-9 26-6 4" fill="#abddda"/><path d="M345 271l4 4 4-2 11-16c0-2-10 9-11 11s-5 2-8 3" fill="#91cecf"/><path d="M366 414l3 2s16-26 18-49l-1-11v-3l1-3a12800 12800 0 018-54h-1l-10-4-3-9-7-2s-2 4-3 23a179 179 0 001 53v10c0 19-6 47-6 47" fill="#b5453c"/><path d="M370 313l16 40 1-3a12800 12800 0 018-54h-1l-10-4-3-9-7-2s-2 4-3 23l-1 9" fill="#93312c"/><path d="M377 286l1-4c6 2 23-6 23-6s6 7 6 23l-2 51-1 7v1l3 7c8 24-1 54-1 54l-2-1s-5-33-9-48l-2-5-5-16c-3-13-5-29-6-42l-5-21" fill="#b5453c"/><path d="M372 239c11 1 9-19 8-19-1-1-4-5-5-12l-8 5a127 127 0 002 11l-1 1s1 14 4 14" fill="#ffb27d"/><path d="M367 213l1 6c5-2 6-8 7-11l-8 5" fill="#ed985f"/><path d="M366 216s11-3 9-11c-2-9-1-15-9-13-7 1-7 5-7 8s4 17 7 16" fill="#ffb27d"/><path d="M358 195c1-3 3-3 3-2 6-6 11-1 11-1 2 6 6 8 6 8s-2 2-7 2l-4-2 6 5c-6-1-11-10-11-11l-2 5v7s-4-6-2-11" fill="#2c3a64"/><path d="M393 422h18l-1-6-2-6c-1 1-3 3-5 2l-3 5c-2 1-7 1-7 5M355 422h18l-1-6v-5l-3 1-2-2-5 7c-2 1-7 1-7 5" fill="#233862"/><path d="M362 229l3 47 2 30 7 2 1-5 2 6c23 4 34-8 34-8a381 381 0 00-17-76c-3-6-13-5-13-5-2 9-8 14-8 14l-5-9-6 4" fill="#abddda"/><path d="M379 218s2 0 2 2c0 0-3 12-8 14l6-16M373 234l-4-11-2 2s4 8 6 9" fill="#6bb7bf"/><path d="M386 230s-17 33-17 40c-1 7 7 3 7 2l10-42" fill="#91cecf"/><path d="M365 276l2 30c24-9 25-72 25-72l-15 34-12 8" fill="#91cecf"/><path d="M354 279l1 4h3l1-1 5-1 10-3 1-1a24 24 0 005-3c3-3 7-11 10-19l1-4a104 104 0 004-18v-2c0-9-6-10-7-9l-2 6-5 15-2 9a213 213 0 01-4 11l-3 3-2 1a135 135 0 01-16 12" fill="#ffb27d"/><path d="M370 267s0 8 6 12c7-3 11-16 14-24l1-4a104 104 0 004-18v-2c0-9-6-10-7-9l-2 6-5 15-2 9a213 213 0 01-4 11l-3 3-2 1M343 266" fill="#abddda"/><path d="M328 419h5V175h-5v244M310 216c4 0 7-4 7-9v-23h-14v23c0 5 3 9 7 9" fill="#fff"/><path d="M310 214c3 0 6-3 6-7v-5h-12v5c0 4 2 7 6 7" fill="#aec3ff"/><path d="M299 180h34v-5h-34v5M308 185h3v-5h-3v5M344 421h-26v-6h26v6M349 285h-21v-11h21v11" fill="#fff"/><path d="M348 282h-18v-6h18v6" fill="#aec3ff"/><path d="M344 279l5-1s-4 0-4-2h5l3 2a42 42 0 004-1l2 5-1 1-7 2c-4 2-7 0-8-2l-1-3 2-1" fill="#ffb27d"/></svg>